<svg width="30" height="22" viewBox="0 0 30 22" fill="none" xmlns="http://www.w3.org/2000/svg">
<path fill-rule="evenodd" clip-rule="evenodd" d="M9.7104 2.642C11.4695 2.49136 13.2343 2.41365 15 2.40909C16.8173 2.40909 18.6115 2.50264 20.2896 2.642C22.308 2.81 23.6149 2.92455 24.6125 3.15745C25.5212 3.36936 26.0297 3.65 26.4666 4.091C26.513 4.13873 26.5826 4.21127 26.6251 4.26282C27.0118 4.70191 27.2631 5.25173 27.4081 6.29027C27.5628 7.40327 27.5667 8.85418 27.5667 11.0477C27.5667 13.2145 27.5628 14.6464 27.4081 15.7441C27.2651 16.7674 27.0137 17.3115 26.6251 17.7563C26.5732 17.815 26.5197 17.8722 26.4647 17.9281C26.02 18.3748 25.5173 18.6516 24.6319 18.8578C23.6517 19.0869 22.3737 19.1976 20.3901 19.3618C18.7101 19.4993 16.8869 19.5909 15 19.5909C13.1131 19.5909 11.288 19.4993 9.60987 19.3618C7.62627 19.1976 6.34833 19.0869 5.36813 18.8578C4.48073 18.6516 3.97807 18.3748 3.53533 17.9281C3.48031 17.8722 3.4268 17.8149 3.37487 17.7563C2.9882 17.3115 2.73687 16.7674 2.59187 15.7441C2.4372 14.6464 2.43333 13.2145 2.43333 11.0477C2.43333 8.85418 2.4372 7.40136 2.59187 6.29027C2.73687 5.25173 2.9882 4.70191 3.37487 4.26282C3.41933 4.21127 3.487 4.13873 3.5334 4.091C3.97033 3.65 4.4788 3.36936 5.38747 3.15745C6.387 2.92455 7.692 2.81 9.7104 2.642ZM0.5 11.0477C0.5 6.76755 0.5 4.62745 1.91133 3.01427C1.98093 2.93409 2.07567 2.83291 2.15107 2.75655C3.65907 1.23118 5.62333 1.067 9.548 0.740545C11.2687 0.595454 13.1189 0.5 15 0.5C16.8811 0.5 18.7313 0.595454 20.452 0.740545C24.3767 1.067 26.3409 1.23118 27.8489 2.75655C27.9243 2.83291 28.0171 2.93409 28.0887 3.01427C29.5 4.62745 29.5 6.76755 29.5 11.0477C29.5 15.2764 29.5 17.3916 28.0867 19.0048C28.0087 19.093 27.9281 19.1789 27.8451 19.2625C26.3351 20.7879 24.4076 20.9464 20.5506 21.2633C18.828 21.4065 16.9488 21.5 15 21.5C13.0512 21.5 11.172 21.4045 9.45133 21.2633C5.5924 20.9464 3.66487 20.786 2.15493 19.2625C2.07198 19.1789 1.99139 19.0929 1.91327 19.0048C0.5 17.3916 0.5 15.2764 0.5 11.0477ZM10.65 6.95845C10.6497 6.87907 10.6695 6.80086 10.7075 6.73093C10.7456 6.66099 10.8007 6.60153 10.8679 6.55793C10.9351 6.51433 11.0122 6.48797 11.0923 6.48124C11.1724 6.4745 11.253 6.48761 11.3267 6.51936L20.6608 10.5628C21.0475 10.7308 21.0475 11.2692 20.6608 11.4372L11.3267 15.4787C11.2531 15.5104 11.1728 15.5235 11.0928 15.5169C11.0129 15.5103 10.9358 15.4841 10.8687 15.4407C10.8016 15.3973 10.7464 15.3381 10.7082 15.2684C10.6701 15.1987 10.65 15.1208 10.65 15.0415V6.95845Z" fill="black"/>
</svg>
