<svg width="40" height="40" viewBox="0 0 40 40" fill="none" xmlns="http://www.w3.org/2000/svg">
<circle cx="20" cy="20" r="19.5" fill="#F6F9FF" stroke="#CACFDC"/>
<path d="M23 20C23 20.6917 22.7366 21.355 22.2678 21.8441C21.7989 22.3332 21.163 22.608 20.5 22.608C19.837 22.608 19.2011 22.3332 18.7322 21.8441C18.2634 21.355 18 20.6917 18 20C18 19.3083 18.2634 18.645 18.7322 18.1559C19.2011 17.6668 19.837 17.392 20.5 17.392C21.163 17.392 21.7989 17.6668 22.2678 18.1559C22.7366 18.645 23 19.3083 23 20ZM23 10.608C23 11.2997 22.7366 11.963 22.2678 12.4521C21.7989 12.9412 21.163 13.216 20.5 13.216C19.837 13.216 19.2011 12.9412 18.7322 12.4521C18.2634 11.963 18 11.2997 18 10.608C18 9.91632 18.2634 9.25296 18.7322 8.76387C19.2011 8.27477 19.837 8 20.5 8C21.163 8 21.7989 8.27477 22.2678 8.76387C22.7366 9.25296 23 9.91632 23 10.608ZM23 29.391C23 30.0827 22.7366 30.746 22.2678 31.2351C21.7989 31.7242 21.163 31.999 20.5 31.999C19.837 31.999 19.2011 31.7242 18.7322 31.2351C18.2634 30.746 18 30.0827 18 29.391C18 28.6993 18.2634 28.036 18.7322 27.5469C19.2011 27.0578 19.837 26.783 20.5 26.783C21.163 26.783 21.7989 27.0578 22.2678 27.5469C22.7366 28.036 23 28.6993 23 29.391Z" fill="#333333"/>
</svg>
