<svg width="14" height="14" viewBox="0 0 14 14" fill="none" xmlns="http://www.w3.org/2000/svg">
<path d="M7.73561 2.10118L2.94644 7.17035C2.76561 7.36285 2.59061 7.74202 2.55561 8.00452L2.33977 9.89452C2.26394 10.577 2.75394 11.0437 3.43061 10.927L5.30894 10.6062C5.57144 10.5595 5.93894 10.367 6.11977 10.1687L10.9089 5.09952C11.7373 4.22452 12.1106 3.22702 10.8214 2.00785C9.53811 0.800351 8.56394 1.22618 7.73561 2.10118Z" fill="#05297D" stroke="#05297D" stroke-width="1.05" stroke-miterlimit="10" stroke-linecap="round" stroke-linejoin="round"/>
<path d="M6.93555 2.94629C7.18638 4.55629 8.49305 5.78712 10.1147 5.95046L6.93555 2.94629Z" fill="#05297D"/>
<path d="M6.93555 2.94629C7.18638 4.55629 8.49305 5.78712 10.1147 5.95046" stroke="#05297D" stroke-width="1.05" stroke-miterlimit="10" stroke-linecap="round" stroke-linejoin="round"/>
<path d="M1.75 12.833H12.25" stroke="#05297D" stroke-width="1.05" stroke-miterlimit="10" stroke-linecap="round" stroke-linejoin="round"/>
</svg>
