<svg width="24" height="25" viewBox="0 0 24 25" fill="none" xmlns="http://www.w3.org/2000/svg">
<g id="mdi:show-outline">
<path id="Vector" d="M12 9.5C12.7956 9.5 13.5587 9.81607 14.1213 10.3787C14.6839 10.9413 15 11.7044 15 12.5C15 13.2956 14.6839 14.0587 14.1213 14.6213C13.5587 15.1839 12.7956 15.5 12 15.5C11.2044 15.5 10.4413 15.1839 9.87868 14.6213C9.31607 14.0587 9 13.2956 9 12.5C9 11.7044 9.31607 10.9413 9.87868 10.3787C10.4413 9.81607 11.2044 9.5 12 9.5ZM12 5C17 5 21.27 8.11 23 12.5C21.27 16.89 17 20 12 20C7 20 2.73 16.89 1 12.5C2.73 8.11 7 5 12 5ZM3.18 12.5C3.98825 14.1503 5.24331 15.5407 6.80248 16.5133C8.36165 17.4858 10.1624 18.0013 12 18.0013C13.8376 18.0013 15.6383 17.4858 17.1975 16.5133C18.7567 15.5407 20.0117 14.1503 20.82 12.5C20.0117 10.8497 18.7567 9.45925 17.1975 8.48675C15.6383 7.51424 13.8376 6.99868 12 6.99868C10.1624 6.99868 8.36165 7.51424 6.80248 8.48675C5.24331 9.45925 3.98825 10.8497 3.18 12.5Z" fill="#D7E8FD"/>
</g>
</svg>
<svg width="22" height="15" viewBox="0 0 22 15" fill="none" xmlns="http://www.w3.org/2000/svg">
<path d="M11 4.5C11.7956 4.5 12.5587 4.81607 13.1213 5.37868C13.6839 5.94129 14 6.70435 14 7.5C14 8.29565 13.6839 9.05871 13.1213 9.62132C12.5587 10.1839 11.7956 10.5 11 10.5C10.2044 10.5 9.44129 10.1839 8.87868 9.62132C8.31607 9.05871 8 8.29565 8 7.5C8 6.70435 8.31607 5.94129 8.87868 5.37868C9.44129 4.81607 10.2044 4.5 11 4.5ZM11 0C16 0 20.27 3.11 22 7.5C20.27 11.89 16 15 11 15C6 15 1.73 11.89 0 7.5C1.73 3.11 6 0 11 0ZM2.18 7.5C2.98825 9.15031 4.24331 10.5407 5.80248 11.5133C7.36165 12.4858 9.1624 13.0013 11 13.0013C12.8376 13.0013 14.6383 12.4858 16.1975 11.5133C17.7567 10.5407 19.0117 9.15031 19.82 7.5C19.0117 5.84969 17.7567 4.45925 16.1975 3.48675C14.6383 2.51424 12.8376 1.99868 11 1.99868C9.1624 1.99868 7.36165 2.51424 5.80248 3.48675C4.24331 4.45925 2.98825 5.84969 2.18 7.5Z" fill="#D7E8FD"/>
</svg>
