<svg width="27" height="27" viewBox="0 0 27 27" fill="none" xmlns="http://www.w3.org/2000/svg">
<g id="Misc Icons / Flag Round" clip-path="url(#clip0_140_19248)">
<path id="Vector" d="M13.5 27C20.9558 27 27 20.9558 27 13.5C27 6.04416 20.9558 0 13.5 0C6.04416 0 0 6.04416 0 13.5C0 20.9558 6.04416 27 13.5 27Z" fill="#F0F0F0"/>
<g id="Group">
<path id="Vector_2" d="M12.9121 13.4993H26.999C26.999 12.2808 26.8366 11.1004 26.534 9.97754H12.9121V13.4993Z" fill="#D80027"/>
<path id="Vector_3" d="M12.9121 6.45633H25.0176C24.1912 5.10781 23.1346 3.91585 21.9026 2.93457H12.9121V6.45633Z" fill="#D80027"/>
<path id="Vector_4" d="M13.4992 27.0002C16.6764 27.0002 19.5967 25.9021 21.9028 24.0654H5.0957C7.40178 25.9021 10.322 27.0002 13.4992 27.0002Z" fill="#D80027"/>
<path id="Vector_5" d="M1.98122 20.5432H25.0183C25.6818 19.4607 26.1963 18.2773 26.5347 17.0215H0.464844C0.80324 18.2773 1.31777 19.4607 1.98122 20.5432Z" fill="#D80027"/>
</g>
<path id="Vector_6" d="M6.25345 2.10821H7.48369L6.33936 2.93957L6.77647 4.28477L5.63219 3.45342L4.48791 4.28477L4.86548 3.12267C3.85794 3.96193 2.97485 4.94522 2.24712 6.04083H2.64131L1.91289 6.57002C1.7994 6.75933 1.69056 6.95166 1.58625 7.14683L1.93409 8.21739L1.28514 7.74589C1.12382 8.08766 0.976272 8.43713 0.843645 8.79388L1.22687 9.97344H2.64131L1.49697 10.8048L1.93409 12.15L0.789803 11.3186L0.104361 11.8167C0.0357539 12.3682 0 12.9299 0 13.5H13.5C13.5 6.0442 13.5 5.16523 13.5 0C10.8331 0 8.34706 0.773613 6.25345 2.10821ZM6.77647 12.15L5.63219 11.3186L4.48791 12.15L4.92502 10.8048L3.78069 9.97344H5.19513L5.63219 8.62824L6.06925 9.97344H7.48369L6.33936 10.8048L6.77647 12.15ZM6.33936 6.87219L6.77647 8.21739L5.63219 7.38603L4.48791 8.21739L4.92502 6.87219L3.78069 6.04083H5.19513L5.63219 4.69563L6.06925 6.04083H7.48369L6.33936 6.87219ZM11.6189 12.15L10.4746 11.3186L9.33029 12.15L9.76741 10.8048L8.62307 9.97344H10.0375L10.4746 8.62824L10.9116 9.97344H12.3261L11.1817 10.8048L11.6189 12.15ZM11.1817 6.87219L11.6189 8.21739L10.4746 7.38603L9.33029 8.21739L9.76741 6.87219L8.62307 6.04083H10.0375L10.4746 4.69563L10.9116 6.04083H12.3261L11.1817 6.87219ZM11.1817 2.93957L11.6189 4.28477L10.4746 3.45342L9.33029 4.28477L9.76741 2.93957L8.62307 2.10821H10.0375L10.4746 0.763014L10.9116 2.10821H12.3261L11.1817 2.93957Z" fill="#0052B4"/>
</g>
<defs>
<clipPath id="clip0_140_19248">
<rect width="27" height="27" fill="white"/>
</clipPath>
</defs>
</svg>
