<svg width="45" height="45" viewBox="0 0 45 45" fill="none" xmlns="http://www.w3.org/2000/svg">
<circle cx="22.5" cy="22.5" r="22.5" fill="white"/>
<g clip-path="url(#clip0_140_19246)">
<path d="M22.5 36C29.9558 36 36 29.9558 36 22.5C36 15.0442 29.9558 9 22.5 9C15.0442 9 9 15.0442 9 22.5C9 29.9558 15.0442 36 22.5 36Z" fill="#F0F0F0"/>
<path d="M21.9121 22.4993H35.999C35.999 21.2808 35.8366 20.1004 35.534 18.9775H21.9121V22.4993Z" fill="#D80027"/>
<path d="M21.9121 15.4563H34.0176C33.1912 14.1078 32.1346 12.9159 30.9026 11.9346H21.9121V15.4563Z" fill="#D80027"/>
<path d="M22.4992 36.0002C25.6764 36.0002 28.5967 34.9021 30.9028 33.0654H14.0957C16.4018 34.9021 19.322 36.0002 22.4992 36.0002Z" fill="#D80027"/>
<path d="M10.9812 29.5432H34.0183C34.6818 28.4607 35.1963 27.2773 35.5347 26.0215H9.46484C9.80324 27.2773 10.3178 28.4607 10.9812 29.5432Z" fill="#D80027"/>
<path d="M15.2535 11.1082H16.4837L15.3394 11.9396L15.7765 13.2848L14.6322 12.4534L13.4879 13.2848L13.8655 12.1227C12.8579 12.9619 11.9749 13.9452 11.2471 15.0408H11.6413L10.9129 15.57C10.7994 15.7593 10.6906 15.9517 10.5862 16.1468L10.9341 17.2174L10.2851 16.7459C10.1238 17.0877 9.97627 17.4371 9.84364 17.7939L10.2269 18.9734H11.6413L10.497 19.8048L10.9341 21.15L9.7898 20.3186L9.10436 20.8167C9.03575 21.3682 9 21.9299 9 22.5H22.5C22.5 15.0442 22.5 14.1652 22.5 9C19.8331 9 17.3471 9.77361 15.2535 11.1082ZM15.7765 21.15L14.6322 20.3186L13.4879 21.15L13.925 19.8048L12.7807 18.9734H14.1951L14.6322 17.6282L15.0693 18.9734H16.4837L15.3394 19.8048L15.7765 21.15ZM15.3394 15.8722L15.7765 17.2174L14.6322 16.386L13.4879 17.2174L13.925 15.8722L12.7807 15.0408H14.1951L14.6322 13.6956L15.0693 15.0408H16.4837L15.3394 15.8722ZM20.6189 21.15L19.4746 20.3186L18.3303 21.15L18.7674 19.8048L17.6231 18.9734H19.0375L19.4746 17.6282L19.9116 18.9734H21.3261L20.1817 19.8048L20.6189 21.15ZM20.1817 15.8722L20.6189 17.2174L19.4746 16.386L18.3303 17.2174L18.7674 15.8722L17.6231 15.0408H19.0375L19.4746 13.6956L19.9116 15.0408H21.3261L20.1817 15.8722ZM20.1817 11.9396L20.6189 13.2848L19.4746 12.4534L18.3303 13.2848L18.7674 11.9396L17.6231 11.1082H19.0375L19.4746 9.76301L19.9116 11.1082H21.3261L20.1817 11.9396Z" fill="#0052B4"/>
</g>
<defs>
<clipPath id="clip0_140_19246">
<rect width="27" height="27" fill="white" transform="translate(9 9)"/>
</clipPath>
</defs>
</svg>
