<svg width="284" height="75" viewBox="0 0 284 75" fill="none" xmlns="http://www.w3.org/2000/svg">
<path d="M8.48769 59.7957C5.44802 59.7957 3.27349 58.9411 1.96409 57.232C0.654698 55.4767 0 52.89 0 49.4718C0 46.0073 1.47307 36.2377 4.41921 20.1629L0.701462 12.749C5.98581 9.377 10.8025 7.69099 15.1516 7.69099C17.9107 7.69099 19.6176 8.98437 20.2722 11.5711C25.0422 11.4325 31.4021 10.2546 39.352 8.03743C39.7261 10.1161 39.9132 11.8714 39.9132 13.3033C39.9132 16.2596 38.7675 18.5923 36.476 20.3014C34.2313 21.9644 31.6125 22.7958 28.6196 22.7958C25.6267 22.7958 22.6338 22.0798 19.6409 20.6479C19.6409 20.6479 19.4305 21.7796 19.0096 24.043C18.6823 25.8445 18.1445 28.5929 17.3963 32.2883C18.9862 32.6578 20.4827 32.8426 21.8856 32.8426C23.8029 32.4731 25.9073 31.9418 28.1988 31.249C28.4326 32.0342 28.5495 33.3276 28.5495 35.1291C28.5495 36.8844 27.8247 38.2933 26.375 39.3557C24.9253 40.4181 23.2885 40.9493 21.4647 40.9493C19.6409 40.9493 17.7938 40.7415 15.9232 40.3257C15.4088 43.2358 15.1516 45.3376 15.1516 46.6309C15.1516 51.1116 15.853 54.4605 17.256 56.6777C14.4501 58.7564 11.5274 59.7957 8.48769 59.7957Z" fill="white"/>
<path d="M47.5498 14.897L43.6216 9.3539C49.4671 5.98188 54.0734 4.29587 57.4404 4.29587C59.3577 4.29587 60.7139 4.6885 61.5089 5.47377C62.3039 6.21284 62.7014 7.64479 62.7014 9.76963C62.7014 11.8483 61.6492 17.7609 59.5448 27.5074C57.4872 37.2539 56.4584 44.0904 56.4584 48.0167C56.4584 51.943 57.1832 54.7146 58.6329 56.3313C55.3594 58.5947 52.3899 59.7264 49.7243 59.7264C47.0588 59.7264 45.0947 58.8719 43.8321 57.1627C42.6162 55.4074 42.0082 53.0055 42.0082 49.9568C42.0082 46.9081 42.8734 40.6722 44.6037 31.249C46.3339 21.8258 47.316 16.3751 47.5498 14.897Z" fill="white"/>
<path d="M87.3063 59.7264C80.8996 59.7264 75.9426 58.0866 72.4353 54.8069C68.9747 51.5273 67.2444 47.0929 67.2444 41.5036C67.2444 34.0667 69.8165 28.0386 74.9605 23.4194C80.1513 18.754 86.6516 16.4213 94.4612 16.4213C98.8102 16.4213 102.107 17.3913 104.352 19.3314C106.596 21.2253 107.719 23.7428 107.719 26.8838C107.719 31.1797 105.591 34.7596 101.335 37.6235C97.1267 40.4412 90.6031 41.8732 81.7647 41.9193C81.905 44.8756 82.5831 47.2083 83.7989 48.9175C85.0148 50.5804 86.5346 51.4118 88.3584 51.4118C90.1822 51.4118 91.7488 50.8113 93.0582 49.6103C94.4144 48.4093 95.0925 46.4462 95.0925 43.7208C101.92 43.7208 105.334 45.3145 105.334 48.5017C105.334 51.2271 103.65 53.7907 100.283 56.1927C96.9163 58.5485 92.5906 59.7264 87.3063 59.7264ZM93.2687 24.528C90.8837 24.528 88.6858 25.7059 86.6749 28.0617C84.7108 30.4175 83.2845 33.189 82.396 36.3763C87.0724 36.0068 90.5797 34.9674 92.9179 33.2583C95.3029 31.503 96.4954 29.6553 96.4954 27.7153C96.4954 26.7914 96.1914 26.0293 95.5835 25.4288C95.0223 24.8283 94.2507 24.528 93.2687 24.528Z" fill="white"/>
<path d="M133.829 51.8276L130.462 45.7302C127.376 48.5479 125.832 51.1578 125.832 53.5598C125.832 54.7146 126.019 55.777 126.394 56.747C123.073 58.7333 119.94 59.7264 116.994 59.7264C115.03 59.7264 113.463 59.1259 112.294 57.9249C111.125 56.6777 110.541 55.061 110.541 53.0747C110.541 50.1185 111.85 47.37 114.469 44.8295C117.134 42.2427 120.244 40.0948 123.798 38.3857L125.832 37.4156L121.624 29.7939C119.8 26.4681 117.088 24.2047 113.487 23.0037C116.386 18.6154 120.174 16.4213 124.85 16.4213C126.955 16.4213 128.732 16.9987 130.181 18.1535C131.631 19.2621 133.198 21.3408 134.881 24.3894L137.968 30.0018C140.774 27.3688 142.176 24.8976 142.176 22.5879C142.176 21.4331 141.989 20.3707 141.615 19.4007C144.936 17.4144 148.069 16.4213 151.015 16.4213C152.979 16.4213 154.546 17.0449 155.715 18.2921C156.884 19.4931 157.468 21.0867 157.468 23.073C157.468 26.0293 156.136 28.8008 153.47 31.3875C150.851 33.9281 147.765 36.0529 144.211 37.7621L142.667 38.5242L147.087 46.4231C148.91 49.8413 151.623 52.1047 155.224 53.2133C152.278 57.5554 148.466 59.7264 143.79 59.7264C141.639 59.7264 139.862 59.1721 138.459 58.0635C137.056 56.9549 135.513 54.8762 133.829 51.8276Z" fill="white"/>
<path d="M192.784 44.6909L189.206 37.4156C194.21 34.136 198.723 32.4962 202.744 32.4962C206.111 32.4962 207.795 34.3669 207.795 38.1085C207.795 39.1709 207.14 42.4275 205.831 47.8781C204.568 53.2826 203.937 57.4168 203.937 60.2807C203.937 63.1446 204.568 65.2695 205.831 66.6552C203.212 68.5491 200.476 69.496 197.624 69.496C194.771 69.496 192.737 68.5722 191.521 66.7245C190.352 64.8768 189.767 62.1746 189.767 58.6178C187.242 59.3569 184.623 59.7264 181.911 59.7264C175.551 59.7264 170.407 57.7863 166.479 53.9062C162.597 50.0261 160.657 44.2982 160.657 36.7227C160.657 33.4893 161.358 30.2096 162.761 26.8838C164.164 23.5118 166.151 20.3938 168.724 17.5299C171.296 14.666 174.639 12.3333 178.754 10.5318C182.916 8.68412 187.195 7.76028 191.591 7.76028C196.034 7.76028 199.494 8.56864 201.973 10.1854C204.498 11.8021 205.761 14.0424 205.761 16.9063C205.761 19.7702 204.802 22.0105 202.885 23.6273C201.014 25.1978 198.863 25.9831 196.431 25.9831C194 25.9831 191.802 25.475 189.838 24.4587C187.92 23.3963 186.377 21.8951 185.208 19.955C182.683 21.156 180.508 23.5118 178.684 27.0224C176.86 30.533 175.949 34.2053 175.949 38.0392C175.949 41.8732 176.697 44.7602 178.193 46.7002C179.736 48.5941 181.654 49.541 183.945 49.541C187.265 49.541 190.212 47.9243 192.784 44.6909Z" fill="white"/>
<path d="M235.691 5.47377C235.691 7.22907 234.755 8.75341 232.885 10.0468C231.014 11.294 228.886 11.9176 226.501 11.9176C224.117 11.9176 222.223 11.4556 220.82 10.5318C219.463 9.60796 218.785 8.36077 218.785 6.79024C218.785 4.6654 219.791 3.00249 221.802 1.80149C223.813 0.600497 225.94 0 228.185 0C230.43 0 232.23 0.461921 233.586 1.38576C234.989 2.3096 235.691 3.67227 235.691 5.47377ZM222.012 59.7264C219.113 59.7264 217.008 59.0104 215.699 57.5785C214.39 56.1465 213.735 53.9755 213.735 51.0654C213.735 48.1091 215.231 40.2333 218.224 27.4381L214.296 21.6179C220.142 18.1535 224.748 16.4213 228.115 16.4213C230.032 16.4213 231.388 16.837 232.183 17.6685C232.978 18.4538 233.376 19.7471 233.376 21.5486C233.376 22.2415 232.511 26.3064 230.78 33.7433C229.05 41.1803 228.185 46.4924 228.185 49.6796C228.185 52.8669 228.91 55.0841 230.36 56.3313C227.741 58.5947 224.958 59.7264 222.012 59.7264Z" fill="white"/>
<path d="M253.136 38.5935C253.136 40.9493 253.79 42.8663 255.1 44.3444C256.456 45.7764 258.116 46.4924 260.08 46.4924C262.746 46.4924 265.131 45.2452 267.235 42.7508C268.03 38.6397 269.059 32.1497 270.321 23.2808C265.084 23.2808 260.899 24.7821 257.765 27.7846C254.679 30.787 253.136 34.39 253.136 38.5935ZM271.724 64.8537C269.526 67.7638 266.767 70.0503 263.447 71.7133C260.127 73.4224 256.62 74.2769 252.925 74.2769C249.278 74.2769 246.331 73.584 244.087 72.1983C241.889 70.8587 240.79 69.0341 240.79 66.7245C240.79 64.4149 241.749 61.9898 243.666 59.4493C245.817 62.5903 249.044 64.1609 253.346 64.1609C256.152 64.1609 258.747 62.9599 261.132 60.5579C263.564 58.2021 265.177 54.7377 265.972 50.1646L265.271 49.8182C261.951 54.6222 257.695 57.0242 252.504 57.0242C248.576 57.0242 245.49 55.5229 243.245 52.5204C241 49.518 239.878 45.5223 239.878 40.5336C239.878 35.7296 241.211 31.3414 243.876 27.3688C246.916 22.7958 251.148 19.6316 256.573 17.8763C259.566 16.9063 262.418 16.4213 265.131 16.4213C267.843 16.4213 270.134 16.6061 272.005 16.9756C272.286 18.2228 272.449 19.3545 272.496 20.3707C274.694 18.8926 276.915 18.1535 279.16 18.1535C282.387 18.1535 284 19.7933 284 23.073C284 26.3526 283.79 29.7246 283.369 33.189C282.948 36.6073 282.293 40.2795 281.405 44.2059C280.516 48.1322 279.23 51.8507 277.547 55.3613C275.91 58.8257 273.969 61.9898 271.724 64.8537Z" fill="white"/>
</svg>
