<svg width="100" height="26" viewBox="0 0 100 26" fill="none" xmlns="http://www.w3.org/2000/svg">
<path d="M2.98862 20.931C1.91832 20.931 1.15264 20.6318 0.691582 20.0336C0.230527 19.4192 0 18.5137 0 17.3172C0 16.1045 0.518687 12.6847 1.55606 7.05784L0.246994 4.46269C2.10768 3.28234 3.8037 2.69216 5.33506 2.69216C6.30657 2.69216 6.90759 3.1449 7.13812 4.05037C8.81767 4.00186 11.0571 3.58955 13.8563 2.81343C13.9881 3.54104 14.0539 4.15547 14.0539 4.65672C14.0539 5.69154 13.6505 6.50808 12.8437 7.10634C12.0533 7.68843 11.1312 7.97948 10.0773 7.97948C9.0235 7.97948 7.96966 7.72886 6.91582 7.22761C6.91582 7.22761 6.84172 7.62376 6.69353 8.41604C6.57826 9.04664 6.3889 10.0087 6.12544 11.3022C6.68529 11.4316 7.21221 11.4963 7.7062 11.4963C8.38132 11.3669 9.1223 11.181 9.92914 10.9384C10.0115 11.2133 10.0526 11.666 10.0526 12.2966C10.0526 12.9111 9.79741 13.4042 9.28696 13.7761C8.77651 14.148 8.20019 14.334 7.55801 14.334C6.91582 14.334 6.26541 14.2612 5.60676 14.1157C5.42563 15.1343 5.33506 15.87 5.33506 16.3228C5.33506 17.8912 5.58206 19.0634 6.07604 19.8396C5.08807 20.5672 4.05893 20.931 2.98862 20.931Z" fill="url(#paint0_linear_475_8985)"/>
<path d="M16.7429 5.21455L15.3597 3.27425C17.418 2.0939 19.0399 1.50373 20.2255 1.50373C20.9006 1.50373 21.3781 1.64117 21.6581 1.91604C21.938 2.17475 22.0779 2.67599 22.0779 3.41978C22.0779 4.14739 21.7075 6.21704 20.9665 9.62873C20.242 13.0404 19.8797 15.4335 19.8797 16.8078C19.8797 18.1822 20.1349 19.1524 20.6454 19.7183C19.4928 20.5106 18.4471 20.9067 17.5086 20.9067C16.57 20.9067 15.8784 20.6076 15.4338 20.0093C15.0057 19.3949 14.7916 18.5541 14.7916 17.4869C14.7916 16.4198 15.0963 14.2369 15.7055 10.9384C16.3148 7.63992 16.6606 5.73196 16.7429 5.21455Z" fill="url(#paint1_linear_475_8985)"/>
<path d="M30.7416 20.9067C28.4858 20.9067 26.7403 20.3327 25.5054 19.1847C24.2869 18.0367 23.6776 16.4845 23.6776 14.528C23.6776 11.9248 24.5833 9.81468 26.3945 8.19776C28.2223 6.56468 30.5111 5.74813 33.261 5.74813C34.7923 5.74813 35.9532 6.08769 36.7436 6.76679C37.534 7.42973 37.9291 8.31095 37.9291 9.41045C37.9291 10.9142 37.1799 12.1673 35.6815 13.1698C34.1995 14.1561 31.9025 14.6573 28.7904 14.6735C28.8398 15.7083 29.0785 16.5249 29.5067 17.1231C29.9348 17.7052 30.4699 17.9963 31.1121 17.9963C31.7543 17.9963 32.3059 17.7861 32.767 17.3657C33.2445 16.9453 33.4833 16.2581 33.4833 15.3041C35.8873 15.3041 37.0894 15.8619 37.0894 16.9776C37.0894 17.9316 36.4966 18.829 35.311 19.6698C34.1255 20.4944 32.6023 20.9067 30.7416 20.9067ZM32.8411 8.58582C32.0013 8.58582 31.2274 8.99813 30.5193 9.82276C29.8278 10.6474 29.3255 11.6175 29.0127 12.7332C30.6593 12.6039 31.8943 12.2401 32.7176 11.6418C33.5574 11.0274 33.9773 10.3806 33.9773 9.70149C33.9773 9.37811 33.8702 9.11132 33.6562 8.90112C33.4586 8.69092 33.1869 8.58582 32.8411 8.58582Z" fill="url(#paint2_linear_475_8985)"/>
<path d="M47.1229 18.1418L45.9373 16.0075C44.8506 16.9938 44.3072 17.9073 44.3072 18.7481C44.3072 19.1524 44.373 19.5243 44.5048 19.8638C43.3357 20.5591 42.2324 20.9067 41.1951 20.9067C40.5035 20.9067 39.9519 20.6965 39.5402 20.2761C39.1285 19.8396 38.9227 19.2736 38.9227 18.5784C38.9227 17.5435 39.3838 16.5815 40.3059 15.6922C41.2445 14.7867 42.3395 14.0348 43.5909 13.4366L44.3072 13.097L42.8252 10.4291C42.183 9.26493 41.228 8.47264 39.9601 8.05224C40.981 6.51617 42.3148 5.74813 43.9614 5.74813C44.7024 5.74813 45.3281 5.95025 45.8385 6.35448C46.349 6.74254 46.9006 7.47015 47.4934 8.53731L48.5802 10.5019C49.5681 9.58022 50.0621 8.71517 50.0621 7.90672C50.0621 7.50249 49.9963 7.1306 49.8645 6.79104C51.0336 6.09577 52.1369 5.74813 53.1743 5.74813C53.8658 5.74813 54.4175 5.96642 54.8291 6.40299C55.2408 6.82338 55.4466 7.38122 55.4466 8.07649C55.4466 9.11132 54.9773 10.0815 54.0387 10.9869C53.1166 11.8762 52.0299 12.62 50.7784 13.2183L50.235 13.4851L51.7911 16.25C52.4333 17.4465 53.3883 18.2388 54.6562 18.6269C53.6188 20.1468 52.2768 20.9067 50.6302 20.9067C49.8728 20.9067 49.2471 20.7127 48.7531 20.3246C48.2591 19.9366 47.7157 19.209 47.1229 18.1418Z" fill="url(#paint3_linear_475_8985)"/>
<path d="M67.8816 15.6437L66.6219 13.097C68.3838 11.949 69.9728 11.375 71.3889 11.375C72.5744 11.375 73.1672 12.0299 73.1672 13.3396C73.1672 13.7114 72.9367 14.8514 72.4756 16.7593C72.0311 18.6511 71.8088 20.0983 71.8088 21.1007C71.8088 22.1032 72.0311 22.847 72.4756 23.3321C71.5535 23.995 70.5903 24.3265 69.5858 24.3265C68.5814 24.3265 67.8651 24.0031 67.437 23.3563C67.0253 22.7096 66.8195 21.7637 66.8195 20.5187C65.9303 20.7774 65.0082 20.9067 64.0532 20.9067C61.8138 20.9067 60.0025 20.2276 58.6193 18.8694C57.2526 17.5112 56.5693 15.5062 56.5693 12.8545C56.5693 11.7226 56.8162 10.5746 57.3102 9.41045C57.8042 8.2301 58.504 7.13868 59.4097 6.13619C60.3153 5.13371 61.4927 4.31716 62.9417 3.68657C64.4072 3.0398 65.9138 2.71642 67.4617 2.71642C69.026 2.71642 70.2445 2.99938 71.1172 3.5653C72.0064 4.13122 72.451 4.91542 72.451 5.91791C72.451 6.9204 72.1134 7.7046 71.4383 8.27052C70.7796 8.82027 70.0222 9.09515 69.1659 9.09515C68.3097 9.09515 67.5358 8.91729 66.8442 8.56157C66.1691 8.18968 65.6257 7.66418 65.214 6.98507C64.3249 7.40547 63.5592 8.2301 62.917 9.45895C62.2748 10.6878 61.9537 11.9733 61.9537 13.3153C61.9537 14.6573 62.2172 15.6679 62.7441 16.347C63.2875 17.01 63.9626 17.3414 64.7694 17.3414C65.9386 17.3414 66.9759 16.7755 67.8816 15.6437Z" fill="url(#paint4_linear_475_8985)"/>
<path d="M82.9897 1.91604C82.9897 2.53047 82.6603 3.06405 82.0017 3.51679C81.343 3.95336 80.5938 4.17164 79.754 4.17164C78.9143 4.17164 78.2474 4.00995 77.7534 3.68657C77.2759 3.36318 77.0371 2.92662 77.0371 2.37687C77.0371 1.63308 77.3911 1.05099 78.0992 0.630596C78.8072 0.210199 79.5564 0 80.3468 0C81.1372 0 81.7712 0.161691 82.2487 0.485074C82.7427 0.808457 82.9897 1.28545 82.9897 1.91604ZM78.1733 20.9067C77.1524 20.9067 76.4114 20.6561 75.9503 20.1549C75.4893 19.6536 75.2588 18.8937 75.2588 17.875C75.2588 16.8402 75.7857 14.0833 76.8395 9.60448L75.4564 7.56716C77.5146 6.35448 79.1366 5.74813 80.3221 5.74813C80.9972 5.74813 81.4748 5.89366 81.7547 6.1847C82.0346 6.45958 82.1746 6.91231 82.1746 7.54291C82.1746 7.78545 81.87 9.20833 81.2607 11.8116C80.6515 14.4148 80.3468 16.2743 80.3468 17.3899C80.3468 18.5056 80.6021 19.2817 81.1125 19.7183C80.1904 20.5106 79.2107 20.9067 78.1733 20.9067Z" fill="url(#paint5_linear_475_8985)"/>
<path d="M89.1323 13.5093C89.1323 14.334 89.3628 15.005 89.8239 15.5224C90.3014 16.0236 90.8859 16.2743 91.5775 16.2743C92.5161 16.2743 93.3559 15.8377 94.0969 14.9646C94.3768 13.5255 94.739 11.2537 95.1836 8.14925C93.3394 8.14925 91.8657 8.67475 90.7624 9.72575C89.6757 10.7767 89.1323 12.0379 89.1323 13.5093ZM95.6776 22.7015C94.9037 23.7201 93.9322 24.5205 92.7631 25.1026C91.594 25.7009 90.359 26 89.0582 26C87.7738 26 86.7364 25.7575 85.9461 25.2724C85.1721 24.8035 84.7852 24.1648 84.7852 23.3563C84.7852 22.5479 85.1227 21.699 85.7979 20.8097C86.5553 21.9092 87.6915 22.459 89.2064 22.459C90.1944 22.459 91.1082 22.0386 91.948 21.1978C92.8043 20.3731 93.3723 19.1604 93.6523 17.5597L93.4053 17.4384C92.2362 19.12 90.7377 19.9608 88.91 19.9608C87.5268 19.9608 86.44 19.4353 85.6497 18.3843C84.8593 17.3333 84.4641 15.9347 84.4641 14.1884C84.4641 12.5068 84.9334 10.9708 85.872 9.58022C86.9423 7.97948 88.4325 6.87189 90.3426 6.25746C91.3964 5.91791 92.4008 5.74813 93.3559 5.74813C94.3109 5.74813 95.1178 5.81281 95.7764 5.94216C95.8752 6.37873 95.9328 6.77488 95.9493 7.1306C96.7232 6.61318 97.5054 6.35448 98.2957 6.35448C99.4319 6.35448 100 6.92848 100 8.07649C100 9.2245 99.9259 10.4049 99.7777 11.6175C99.6295 12.8141 99.399 14.0995 99.0861 15.4739C98.7733 16.8483 98.3204 18.1499 97.7277 19.3787C97.1513 20.5914 96.468 21.699 95.6776 22.7015Z" fill="url(#paint6_linear_475_8985)"/>
<defs>
<linearGradient id="paint0_linear_475_8985" x1="22.0473" y1="-13.4" x2="163.102" y2="52.1727" gradientUnits="userSpaceOnUse">
<stop stop-color="#05297D"/>
<stop offset="1" stop-color="#FF7A60"/>
</linearGradient>
<linearGradient id="paint1_linear_475_8985" x1="22.0473" y1="-13.4" x2="163.102" y2="52.1727" gradientUnits="userSpaceOnUse">
<stop stop-color="#05297D"/>
<stop offset="1" stop-color="#FF7A60"/>
</linearGradient>
<linearGradient id="paint2_linear_475_8985" x1="22.0473" y1="-13.4" x2="163.102" y2="52.1727" gradientUnits="userSpaceOnUse">
<stop stop-color="#05297D"/>
<stop offset="1" stop-color="#FF7A60"/>
</linearGradient>
<linearGradient id="paint3_linear_475_8985" x1="22.0473" y1="-13.4" x2="163.102" y2="52.1727" gradientUnits="userSpaceOnUse">
<stop stop-color="#05297D"/>
<stop offset="1" stop-color="#FF7A60"/>
</linearGradient>
<linearGradient id="paint4_linear_475_8985" x1="22.0473" y1="-13.4" x2="163.102" y2="52.1727" gradientUnits="userSpaceOnUse">
<stop stop-color="#05297D"/>
<stop offset="1" stop-color="#FF7A60"/>
</linearGradient>
<linearGradient id="paint5_linear_475_8985" x1="22.0473" y1="-13.4" x2="163.102" y2="52.1727" gradientUnits="userSpaceOnUse">
<stop stop-color="#05297D"/>
<stop offset="1" stop-color="#FF7A60"/>
</linearGradient>
<linearGradient id="paint6_linear_475_8985" x1="22.0473" y1="-13.4" x2="163.102" y2="52.1727" gradientUnits="userSpaceOnUse">
<stop stop-color="#05297D"/>
<stop offset="1" stop-color="#FF7A60"/>
</linearGradient>
</defs>
</svg>
