<svg width="32" height="32" viewBox="0 0 32 32" fill="none" xmlns="http://www.w3.org/2000/svg">
<g id="vuesax/broken/global-edit">
<g id="vuesax/broken/global-edit_2">
<g id="global-edit">
<path id="Vector" d="M28 12.0004C24.1067 10.7071 20.0533 10.0537 16 10.0537" stroke="#151A1D" stroke-width="1.5" stroke-linecap="round" stroke-linejoin="round"/>
<path id="Vector_2" d="M4 11.9998C6.12 11.2931 8.28001 10.7865 10.4667 10.4531" stroke="#151A1D" stroke-width="1.5" stroke-linecap="round" stroke-linejoin="round"/>
<path id="Vector_3" d="M29.3327 16.0003C29.3327 8.64033 23.3593 2.66699 15.9993 2.66699C8.63935 2.66699 2.66602 8.64033 2.66602 16.0003C2.66602 23.3603 8.63935 29.3337 15.9993 29.3337" stroke="#151A1D" stroke-width="1.5" stroke-linecap="round" stroke-linejoin="round"/>
<path id="Vector_4" d="M10.6674 4H12.0008C9.40078 11.7867 9.40078 20.2133 12.0008 28H10.6674" stroke="#151A1D" stroke-width="1.5" stroke-linecap="round" stroke-linejoin="round"/>
<path id="Vector_5" d="M20 4C21.2933 7.89333 21.9467 11.9467 21.9467 16" stroke="#151A1D" stroke-width="1.5" stroke-linecap="round" stroke-linejoin="round"/>
<path id="Vector_6" d="M4 21.3333V20C7.89333 21.2933 11.9467 21.9467 16 21.9467" stroke="#151A1D" stroke-width="1.5" stroke-linecap="round" stroke-linejoin="round"/>
<g id="Group">
<path id="Vector_7" d="M25.614 20.9867L20.894 25.7067C20.7074 25.8934 20.534 26.24 20.494 26.4934L20.2407 28.2933C20.1474 28.9467 20.6007 29.4 21.254 29.3067L23.054 29.0533C23.3074 29.0133 23.6674 28.84 23.8407 28.6534L28.5607 23.9334C29.374 23.1201 29.7607 22.1733 28.5607 20.9733C27.374 19.7867 26.4274 20.1734 25.614 20.9867Z" stroke="#151A1D" stroke-width="1.5" stroke-miterlimit="10" stroke-linecap="round" stroke-linejoin="round"/>
<path id="Vector_8" d="M24.9336 21.667C25.3336 23.107 26.4536 24.227 27.8936 24.627" stroke="#151A1D" stroke-width="1.5" stroke-miterlimit="10" stroke-linecap="round" stroke-linejoin="round"/>
</g>
</g>
</g>
</g>
</svg>
