<svg width="33" height="32" viewBox="0 0 33 32" fill="none" xmlns="http://www.w3.org/2000/svg">
<g id="Icon">
<path id="Vector" d="M29.5733 13.388H28.4993V13.3327H16.4993V18.666H24.0347C22.9353 21.7707 19.9813 23.9993 16.4993 23.9993C12.0813 23.9993 8.49935 20.4173 8.49935 15.9993C8.49935 11.5813 12.0813 7.99935 16.4993 7.99935C18.5387 7.99935 20.394 8.76868 21.8067 10.0253L25.578 6.25402C23.1967 4.03468 20.0113 2.66602 16.4993 2.66602C9.13602 2.66602 3.16602 8.63602 3.16602 15.9993C3.16602 23.3627 9.13602 29.3327 16.4993 29.3327C23.8627 29.3327 29.8327 23.3627 29.8327 15.9993C29.8327 15.1053 29.7407 14.2327 29.5733 13.388Z" fill="#FFC107"/>
<path id="Vector_2" d="M4.70312 9.79335L9.08379 13.006C10.2691 10.0713 13.1398 7.99935 16.4991 7.99935C18.5385 7.99935 20.3938 8.76868 21.8065 10.0253L25.5778 6.25402C23.1965 4.03468 20.0111 2.66602 16.4991 2.66602C11.3778 2.66602 6.93646 5.55735 4.70312 9.79335Z" fill="#FF3D00"/>
<path id="Vector_3" d="M16.5009 29.3338C19.9449 29.3338 23.0742 28.0158 25.4402 25.8725L21.3135 22.3805C19.9299 23.4327 18.2392 24.0018 16.5009 24.0005C13.0329 24.0005 10.0882 21.7891 8.97886 18.7031L4.63086 22.0531C6.83753 26.3711 11.3189 29.3338 16.5009 29.3338Z" fill="#4CAF50"/>
<path id="Vector_4" d="M29.574 13.3893H28.5V13.334H16.5V18.6673H24.0353C23.5095 20.1449 22.5622 21.4361 21.3107 22.3813L21.3127 22.38L25.4393 25.872C25.1473 26.1373 29.8333 22.6673 29.8333 16.0007C29.8333 15.1067 29.7413 14.234 29.574 13.3893Z" fill="#1976D2"/>
</g>
</svg>
