<svg width="68" height="68" viewBox="0 0 68 68" fill="none" xmlns="http://www.w3.org/2000/svg">
<path d="M61.5114 24.6783C65.0531 21.1367 63.4381 17 61.5114 14.9883L53.0114 6.48834C49.4414 2.94667 45.3331 4.56167 43.3214 6.48834L38.5048 11.3333H31.1664C25.7831 11.3333 22.6664 14.1667 21.0798 17.425L8.49976 30.005V41.3383L6.48809 43.3217C2.94642 46.8917 4.56142 51 6.48809 53.0117L14.9881 61.5117C16.5181 63.0417 18.1614 63.6083 19.7198 63.6083C21.7314 63.6083 23.5731 62.6167 24.6781 61.5117L32.3281 53.8333H42.4998C47.3164 53.8333 49.7531 50.83 50.6314 47.8833C53.8331 47.0333 55.5898 44.5967 56.2981 42.2167C60.6898 41.0833 62.3331 36.9183 62.3331 34V25.5H60.6614L61.5114 24.6783ZM56.6664 34C56.6664 35.275 56.1281 36.8333 53.8331 36.8333H50.9998V39.6667C50.9998 40.9417 50.4614 42.5 48.1664 42.5H45.3331V45.3333C45.3331 46.6083 44.7948 48.1667 42.4998 48.1667H30.0048L20.7114 57.46C19.8331 58.2817 19.3231 57.8 19.0114 57.4883L10.5398 49.045C9.71809 48.1667 10.1998 47.6567 10.5114 47.345L14.1664 43.6617V32.3283L19.8331 26.6617V31.1667C19.8331 34.595 22.0998 39.6667 28.3331 39.6667C34.5664 39.6667 36.8331 34.595 36.8331 31.1667H56.6664V34ZM57.4881 20.655L52.6714 25.5H31.1664V31.1667C31.1664 32.4417 30.6281 34 28.3331 34C26.0381 34 25.4998 32.4417 25.4998 31.1667V22.6667C25.4998 21.3633 25.9814 17 31.1664 17H40.8281L47.2881 10.54C48.1664 9.71834 48.6764 10.2 48.9881 10.5117L57.4598 18.955C58.2814 19.8333 57.7998 20.3433 57.4881 20.655Z" fill="#8294BE"/>
</svg>
