<svg width="33" height="33" viewBox="0 0 33 33" fill="none" xmlns="http://www.w3.org/2000/svg">
<path d="M12.2091 12.1073H9.31455V7.74366H12.2091V4.8782H9.31455V3.42366C9.31455 1.80911 10.6091 0.529114 12.2091 0.529114H20.9073V10.6528L24.5 8.47093L28.1364 10.6528V0.529114H29.5909C31.1182 0.529114 32.5 1.92548 32.5 3.42366V23.7437C32.5 25.2418 31.1182 26.6527 29.5909 26.6527H12.2091C10.6818 26.6527 9.31455 25.2709 9.31455 23.7437V22.2891H12.2091V19.38H9.31455V15.0164H12.2091V12.1073ZM0.5 25.1982H3.40909V20.8346H0.5V17.9255H3.40909V13.5618H0.5V10.6528H3.40909V6.28911H6.31818V10.6528H3.40909V13.5618H6.31818V17.9255H3.40909V20.8346H6.31818V25.1982H3.40909V28.1073H6.31818V29.5618H29.5909V32.4709H6.31818C5.54664 32.4709 4.8067 32.1644 4.26114 31.6189C3.71558 31.0733 3.40909 30.3334 3.40909 29.5618V28.1073H0.5V25.1982Z" fill="black" fill-opacity="0.67"/>
</svg>
