<svg width="33" height="33" viewBox="0 0 33 33" fill="none" xmlns="http://www.w3.org/2000/svg">
<path d="M29.3 12.2895V10.6053L19.7 0.5H3.7C1.924 0.5 0.5 1.99895 0.5 3.86842V27.4474C0.5 29.3168 1.94 30.8158 3.7 30.8158H13.3V27.6663L26.724 13.5358C27.428 12.7947 28.324 12.3905 29.3 12.2895ZM18.1 3.02632L26.9 12.2895H18.1V3.02632ZM32.26 19.3463L30.692 20.9968L27.428 17.5611L28.996 15.9105C29.3 15.5737 29.828 15.5737 30.148 15.9105L32.26 18.1337C32.58 18.4705 32.58 19.0263 32.26 19.3463ZM26.308 18.74L29.572 22.1758L19.764 32.5H16.5V29.0642L26.308 18.74Z" fill="black" fill-opacity="0.67"/>
</svg>
