<svg width="33" height="32" viewBox="0 0 33 32" fill="none" xmlns="http://www.w3.org/2000/svg">
<path d="M26.0883 19.2H14.0883L17.2883 16H26.0883M6.88828 19.2V15.2L17.8963 4.224C18.2003 3.92 18.7123 3.92 19.0323 4.224L21.8483 7.056C22.1683 7.376 22.1683 7.872 21.8483 8.192L10.8403 19.2M29.2883 0H3.68828C2.83959 0 2.02566 0.337142 1.42554 0.937258C0.825423 1.53737 0.488281 2.35131 0.488281 3.2V32L6.88828 25.6H29.2883C30.137 25.6 30.9509 25.2629 31.551 24.6627C32.1511 24.0626 32.4883 23.2487 32.4883 22.4V3.2C32.4883 1.424 31.0483 0 29.2883 0Z" fill="black" fill-opacity="0.67"/>
</svg>
