<svg width="40" height="36" viewBox="0 0 40 36" fill="none" xmlns="http://www.w3.org/2000/svg">
<path d="M39.268 15.0448L35.7328 11.5097C35.2641 11.0409 34.6281 10.7776 33.9648 10.7776H30V4.52686C30 2.45576 28.3211 0.776855 26.25 0.776855H13.75C11.6789 0.776855 10 2.45576 10 4.52686V10.7769H6.03516C5.37188 10.7769 4.73672 11.0401 4.26719 11.5089L0.732031 15.0448C0.263281 15.5136 0 16.1495 0 16.8128V23.2769H10V22.0269C10 21.3362 10.5594 20.7769 11.25 20.7769H13.75C14.4406 20.7769 15 21.3362 15 22.0269V23.2769H25V22.0269C25 21.3362 25.5594 20.7769 26.25 20.7769H28.75C29.4406 20.7769 30 21.3362 30 22.0269V23.2769H40V16.812C40 16.1495 39.7367 15.5136 39.268 15.0448ZM25 10.7769H15V5.77686H25V10.7769ZM30 27.0269C30 27.7175 29.4406 28.2769 28.75 28.2769H26.25C25.5594 28.2769 25 27.7175 25 27.0269V25.7769H15V27.0269C15 27.7175 14.4406 28.2769 13.75 28.2769H11.25C10.5594 28.2769 10 27.7175 10 27.0269V25.7769H0V33.2769C0 34.6573 1.11953 35.7769 2.5 35.7769H37.5C38.8805 35.7769 40 34.6573 40 33.2769V25.7769H30V27.0269Z" fill="#5870A8"/>
</svg>
