<svg width="38" height="38" viewBox="0 0 38 38" fill="none" xmlns="http://www.w3.org/2000/svg">
<circle cx="19" cy="19" r="18" stroke="#FDFDFD" stroke-width="2"/>
<path d="M15.939 12.2666H21.259C23.2856 12.2666 24.9323 13.9133 24.9323 15.9399V21.2599C24.9323 22.2342 24.5453 23.1685 23.8564 23.8574C23.1675 24.5463 22.2332 24.9333 21.259 24.9333H15.939C13.9123 24.9333 12.2656 23.2866 12.2656 21.2599V15.9399C12.2656 14.9657 12.6526 14.0314 13.3415 13.3425C14.0304 12.6536 14.9647 12.2666 15.939 12.2666ZM15.8123 13.5333C15.2076 13.5333 14.6277 13.7735 14.2001 14.2011C13.7725 14.6286 13.5323 15.2086 13.5323 15.8133V21.3866C13.5323 22.6469 14.552 23.6666 15.8123 23.6666H21.3856C21.9903 23.6666 22.5702 23.4264 22.9978 22.9988C23.4254 22.5712 23.6656 21.9913 23.6656 21.3866V15.8133C23.6656 14.5529 22.646 13.5333 21.3856 13.5333H15.8123ZM21.924 14.4833C22.1339 14.4833 22.3353 14.5667 22.4838 14.7151C22.6322 14.8636 22.7156 15.065 22.7156 15.2749C22.7156 15.4849 22.6322 15.6863 22.4838 15.8347C22.3353 15.9832 22.1339 16.0666 21.924 16.0666C21.714 16.0666 21.5126 15.9832 21.3642 15.8347C21.2157 15.6863 21.1323 15.4849 21.1323 15.2749C21.1323 15.065 21.2157 14.8636 21.3642 14.7151C21.5126 14.5667 21.714 14.4833 21.924 14.4833ZM18.599 15.4333C19.4388 15.4333 20.2443 15.7669 20.8381 16.3608C21.432 16.9546 21.7656 17.7601 21.7656 18.5999C21.7656 19.4398 21.432 20.2452 20.8381 20.8391C20.2443 21.433 19.4388 21.7666 18.599 21.7666C17.7591 21.7666 16.9537 21.433 16.3598 20.8391C15.7659 20.2452 15.4323 19.4398 15.4323 18.5999C15.4323 17.7601 15.7659 16.9546 16.3598 16.3608C16.9537 15.7669 17.7591 15.4333 18.599 15.4333ZM18.599 16.6999C18.095 16.6999 17.6118 16.9001 17.2555 17.2564C16.8991 17.6128 16.699 18.096 16.699 18.5999C16.699 19.1038 16.8991 19.5871 17.2555 19.9434C17.6118 20.2998 18.095 20.4999 18.599 20.4999C19.1029 20.4999 19.5861 20.2998 19.9425 19.9434C20.2988 19.5871 20.499 19.1038 20.499 18.5999C20.499 18.096 20.2988 17.6128 19.9425 17.2564C19.5861 16.9001 19.1029 16.6999 18.599 16.6999Z" fill="#FDFDFD"/>
</svg>
