<svg width="58" height="58" viewBox="0 0 58 58" fill="none" xmlns="http://www.w3.org/2000/svg">
<rect width="58" height="58" fill="#1E1E1E"/>
<g id="About" clip-path="url(#clip0_0_1)">
<rect width="1440" height="3555" transform="translate(-1133 -1433)" fill="white"/>
<g id="Frame 2087324837">
<g id="Frame 2087324829">
<g id="Frame 2087324828">
<rect x="-169" y="-24" width="396" height="246" rx="16" fill="#A6A6A8" fill-opacity="0.1"/>
<g id="Frame 1000002745">
<g id="LightBulb">
<path id="Vector" d="M31.8998 8.70005C31.8998 7.93092 31.5943 7.19329 31.0504 6.64944C30.5066 6.10558 29.7689 5.80005 28.9998 5.80005C28.2307 5.80005 27.4931 6.10558 26.9492 6.64944C26.4053 7.19329 26.0998 7.93092 26.0998 8.70005V11.6C26.0998 12.3692 26.4053 13.1068 26.9492 13.6507C27.4931 14.1945 28.2307 14.5 28.9998 14.5C29.7689 14.5 30.5066 14.1945 31.0504 13.6507C31.5943 13.1068 31.8998 12.3692 31.8998 11.6V8.70005ZM45.4051 16.6953C45.9334 16.1484 46.2257 15.4159 46.2191 14.6555C46.2125 13.8951 45.9075 13.1678 45.3698 12.6301C44.8321 12.0924 44.1047 11.7874 43.3444 11.7808C42.584 11.7742 41.8515 12.0665 41.3045 12.5947L39.2542 14.6451C38.7259 15.192 38.4336 15.9245 38.4403 16.6849C38.4469 17.4453 38.7519 18.1726 39.2895 18.7103C39.8272 19.248 40.5546 19.553 41.3149 19.5596C42.0753 19.5662 42.8079 19.2739 43.3548 18.7457L45.4051 16.6953ZM52.1998 29C52.1998 29.7692 51.8943 30.5068 51.3504 31.0507C50.8066 31.5945 50.0689 31.9 49.2998 31.9H46.3998C45.6307 31.9 44.8931 31.5945 44.3492 31.0507C43.8053 30.5068 43.4998 29.7692 43.4998 29C43.4998 28.2309 43.8053 27.4933 44.3492 26.9494C44.8931 26.4056 45.6307 26.1 46.3998 26.1H49.2998C50.0689 26.1 50.8066 26.4056 51.3504 26.9494C51.8943 27.4933 52.1998 28.2309 52.1998 29ZM14.6448 18.7457C14.9123 19.0226 15.2323 19.2436 15.5861 19.3955C15.9399 19.5475 16.3205 19.6275 16.7055 19.6309C17.0906 19.6342 17.4725 19.5608 17.8289 19.415C18.1853 19.2692 18.5091 19.0539 18.7814 18.7816C19.0536 18.5093 19.269 18.1855 19.4148 17.8291C19.5606 17.4727 19.634 17.0908 19.6306 16.7058C19.6273 16.3207 19.5473 15.9402 19.3953 15.5864C19.2433 15.2326 19.0224 14.9126 18.7454 14.6451L16.6951 12.5947C16.1482 12.0665 15.4156 11.7742 14.6552 11.7808C13.8949 11.7874 13.1675 12.0924 12.6298 12.6301C12.0921 13.1678 11.7872 13.8951 11.7806 14.6555C11.7739 15.4159 12.0662 16.1484 12.5945 16.6953L14.6448 18.7457ZM14.4998 29C14.4998 29.7692 14.1943 30.5068 13.6504 31.0507C13.1066 31.5945 12.3689 31.9 11.5998 31.9H8.6998C7.93068 31.9 7.19305 31.5945 6.64919 31.0507C6.10534 30.5068 5.7998 29.7692 5.7998 29C5.7998 28.2309 6.10534 27.4933 6.64919 26.9494C7.19305 26.4056 7.93068 26.1 8.6998 26.1H11.5998C12.3689 26.1 13.1066 26.4056 13.6504 26.9494C14.1943 27.4933 14.4998 28.2309 14.4998 29ZM23.1998 46.4001V43.5H34.7998V46.4001C34.7998 47.9383 34.1887 49.4136 33.101 50.5013C32.0133 51.589 30.5381 52.2001 28.9998 52.2001C27.4615 52.2001 25.9863 51.589 24.8986 50.5013C23.8109 49.4136 23.1998 47.9383 23.1998 46.4001ZM34.7998 40.6001C34.8433 39.6141 35.403 38.7267 36.1831 38.1089C38.0759 36.6162 39.4566 34.5708 40.1333 32.2572C40.8101 29.9436 40.7492 27.4766 39.9592 25.1991C39.1692 22.9216 37.6893 20.9469 35.7252 19.5493C33.7611 18.1517 31.4104 17.4007 28.9998 17.4007C26.5892 17.4007 24.2385 18.1517 22.2744 19.5493C20.3103 20.9469 18.8304 22.9216 18.0404 25.1991C17.2504 27.4766 17.1896 29.9436 17.8663 32.2572C18.543 34.5708 19.9237 36.6162 21.8165 38.1089C22.5995 38.7267 23.1563 39.6141 23.1969 40.6001H34.8027H34.7998Z" fill="url(#paint0_linear_0_1)"/>
</g>
</g>
</g>
</g>
</g>
</g>
<defs>
<linearGradient id="paint0_linear_0_1" x1="16.0297" y1="-18.1139" x2="94.4772" y2="-8.63212" gradientUnits="userSpaceOnUse">
<stop stop-color="#05297D"/>
<stop offset="1" stop-color="#FF7A60"/>
</linearGradient>
<clipPath id="clip0_0_1">
<rect width="1440" height="3555" fill="white" transform="translate(-1133 -1433)"/>
</clipPath>
</defs>
</svg>
