<svg width="38" height="38" viewBox="0 0 38 38" fill="none" xmlns="http://www.w3.org/2000/svg">
<circle cx="19" cy="19" r="18" stroke="#FDFDFD" stroke-width="2"/>
<g clip-path="url(#clip0_196_23599)">
<path d="M15.3247 24.7001H12.5673V15.8206H15.3247V24.7001ZM13.9445 14.6093C13.0628 14.6093 12.3477 13.879 12.3477 12.9973C12.3477 12.5738 12.5159 12.1676 12.8154 11.8681C13.1148 11.5686 13.521 11.4004 13.9445 11.4004C14.3681 11.4004 14.7742 11.5686 15.0737 11.8681C15.3732 12.1676 15.5414 12.5738 15.5414 12.9973C15.5414 13.879 14.826 14.6093 13.9445 14.6093ZM25.6447 24.7001H22.8932V20.3776C22.8932 19.3474 22.8725 18.0263 21.4596 18.0263C20.026 18.0263 19.8063 19.1456 19.8063 20.3034V24.7001H17.0519V15.8206H19.6965V17.0318H19.7351C20.1032 16.3342 21.0025 15.5979 22.344 15.5979C25.1347 15.5979 25.6477 17.4356 25.6477 19.8224V24.7001H25.6447Z" fill="#FDFDFD"/>
</g>
<defs>
<clipPath id="clip0_196_23599">
<rect width="15.2" height="15.2" fill="white" transform="translate(11.3984 11.3999)"/>
</clipPath>
</defs>
</svg>
