
<svg width="12" height="16" viewBox="0 0 12 16" fill="none" xmlns="http://www.w3.org/2000/svg">
<rect width="12" height="16" fill="#636262"/>
<g id="Top Search">
<rect width="1440" height="1764" transform="translate(-468 -447)" fill="#F7F9FF"/>
<g id="Jobs">
<path d="M-196 -321C-196 -326.523 -191.523 -331 -186 -331H654C659.523 -331 664 -326.523 664 -321V1172H-196V-321Z" fill="white"/>
<g id="Job">
<g id="Job_2">
<rect x="-177.5" y="-228.5" width="823" height="322" rx="7.5" fill="white"/>
<g id="Content">
<g id="details">
<g id="Payment">
<g id="Location">
<path id="Vector" d="M6.03241 0.696289C2.85209 0.696289 0.25 3.32576 0.25 6.53957C0.25 10.4838 5.30961 14.9393 5.52645 15.1584C5.67101 15.2314 5.88785 15.3045 6.03241 15.3045C6.17697 15.3045 6.39381 15.2314 6.53837 15.1584C6.75521 14.9393 11.8148 10.4838 11.8148 6.53957C11.8148 3.32576 9.21274 0.696289 6.03241 0.696289ZM6.03241 13.6245C4.51453 12.1637 1.6956 9.02296 1.6956 6.53957C1.6956 4.12922 3.64717 2.15711 6.03241 2.15711C8.41766 2.15711 10.3692 4.12922 10.3692 6.53957C10.3692 8.94992 7.5503 12.1637 6.03241 13.6245ZM6.03241 3.61793C4.44225 3.61793 3.14121 4.93267 3.14121 6.53957C3.14121 8.14647 4.44225 9.46121 6.03241 9.46121C7.62258 9.46121 8.92362 8.14647 8.92362 6.53957C8.92362 4.93267 7.62258 3.61793 6.03241 3.61793ZM6.03241 8.00039C5.23733 8.00039 4.58681 7.34302 4.58681 6.53957C4.58681 5.73612 5.23733 5.07875 6.03241 5.07875C6.82749 5.07875 7.47801 5.73612 7.47801 6.53957C7.47801 7.34302 6.82749 8.00039 6.03241 8.00039Z" fill="#646566"/>
</g>
</g>
</g>
</g>
<rect x="-177.5" y="-228.5" width="823" height="322" rx="7.5" stroke="#A6A6A8"/>
</g>
</g>
</g>
</g>
</svg>
