<svg width="15" height="16" viewBox="0 0 15 16" fill="none" xmlns="http://www.w3.org/2000/svg">
<rect width="15" height="16" fill="#636262"/>
<g id="Top Search">
<rect width="1440" height="1764" transform="translate(-550 -447)" fill="#F7F9FF"/>
<g id="Jobs">
<path d="M-278 -321C-278 -326.523 -273.523 -331 -268 -331H572C577.523 -331 582 -326.523 582 -321V1172H-278V-321Z" fill="white"/>
<g id="Job">
<g id="Job_2">
<rect x="-259.5" y="-228.5" width="823" height="322" rx="7.5" fill="white"/>
<g id="Content">
<g id="details">
<g id="Payment">
<g id="payment">
<g id="material-symbols:verified-user-rounded">
<path id="Vector" d="M6.84424 8.4375L5.96924 7.5625C5.84424 7.4375 5.69841 7.375 5.53174 7.375C5.36507 7.375 5.21924 7.4375 5.09424 7.5625C4.96924 7.6875 4.90674 7.83604 4.90674 8.00812C4.90674 8.18021 4.96924 8.32854 5.09424 8.45313L6.40674 9.78125C6.53174 9.90625 6.67757 9.96875 6.84424 9.96875C7.0109 9.96875 7.15674 9.90625 7.28174 9.78125L9.93799 7.125C10.063 7 10.1255 6.85167 10.1255 6.68C10.1255 6.50833 10.063 6.35979 9.93799 6.23438C9.81299 6.10938 9.66445 6.04688 9.49236 6.04688C9.32028 6.04688 9.17195 6.10938 9.04736 6.23438L6.84424 8.4375ZM7.50049 14.1875C7.42757 14.1875 7.35986 14.1823 7.29736 14.1719C7.23486 14.1615 7.17236 14.1458 7.10986 14.125C5.70361 13.6562 4.58382 12.7892 3.75049 11.5238C2.91715 10.2583 2.50049 8.89625 2.50049 7.4375V4.48438C2.50049 4.22396 2.57611 3.98958 2.72736 3.78125C2.87861 3.57292 3.07382 3.42188 3.31299 3.32812L7.06299 1.92188C7.20882 1.86979 7.35465 1.84375 7.50049 1.84375C7.64632 1.84375 7.79215 1.86979 7.93799 1.92188L11.688 3.32812C11.9276 3.42188 12.123 3.57292 12.2742 3.78125C12.4255 3.98958 12.5009 4.22396 12.5005 4.48438V7.4375C12.5005 8.89583 12.0838 10.2579 11.2505 11.5238C10.4172 12.7896 9.29736 13.6567 7.89111 14.125C7.82861 14.1458 7.76611 14.1615 7.70361 14.1719C7.64111 14.1823 7.5734 14.1875 7.50049 14.1875Z" fill="#05297D"/>
</g>
</g>
</g>
</g>
</g>
<rect x="-259.5" y="-228.5" width="823" height="322" rx="7.5" stroke="#A6A6A8"/>
</g>
</g>
</g>
</g>
</svg>
