<svg width="34" height="36" viewBox="0 0 34 36" fill="none" xmlns="http://www.w3.org/2000/svg">
<path d="M32.9252 28.0167L17.5736 35.6588C17.3926 35.7365 17.1976 35.7766 17.0006 35.7766C16.8036 35.7766 16.6086 35.7365 16.4275 35.6588L1.0752 28.0167C0.762695 27.8604 0.762695 27.6042 1.0752 27.4471L4.75176 25.6206C4.93309 25.5429 5.12831 25.5028 5.32559 25.5028C5.52286 25.5028 5.71808 25.5429 5.89941 25.6206L16.4275 30.8549C16.6085 30.933 16.8035 30.9733 17.0006 30.9733C17.1977 30.9733 17.3927 30.933 17.5736 30.8549L28.1018 25.6206C28.2829 25.5429 28.478 25.5028 28.6752 25.5028C28.8723 25.5028 29.0674 25.5429 29.2486 25.6206L32.9252 27.451C33.2416 27.6042 33.2416 27.8604 32.9252 28.0167ZM32.9252 17.3503L29.2486 15.5198C29.0674 15.4421 28.8723 15.402 28.6752 15.402C28.478 15.402 28.2829 15.4421 28.1018 15.5198L17.5736 20.7604C17.3925 20.8378 17.1976 20.8776 17.0006 20.8776C16.8036 20.8776 16.6087 20.8378 16.4275 20.7604L5.89941 15.5198C5.71808 15.4421 5.52286 15.402 5.32559 15.402C5.12831 15.402 4.93309 15.4421 4.75176 15.5198L1.0752 17.3503C0.762695 17.5065 0.762695 17.7635 1.0752 17.9213L16.4275 25.562C16.6086 25.6397 16.8036 25.6797 17.0006 25.6797C17.1976 25.6797 17.3926 25.6397 17.5736 25.562L32.9252 17.9213C33.2416 17.7635 33.2416 17.5073 32.9252 17.3503ZM1.0752 8.46588L16.4268 15.5198C16.7951 15.6643 17.2045 15.6643 17.5729 15.5198L32.9252 8.46588C33.2377 8.32057 33.2377 8.08385 32.9252 7.93932L17.5729 0.886194C17.2048 0.740084 16.7948 0.740084 16.4268 0.886194L1.0752 7.93932C0.758789 8.08385 0.758789 8.32057 1.0752 8.46588Z" fill="#5870A8"/>
</svg>
