<svg width="30" height="30" viewBox="0 0 30 30" fill="none" xmlns="http://www.w3.org/2000/svg">
<rect width="30" height="30" rx="15" fill="#E9F7F0"/>
<path d="M19.2133 15.5003H17C15.34 15.5003 14.5 14.5603 14.5 12.7003V10.787C14.5 10.107 14.58 9.13363 15.2867 8.6003C15.88 8.1603 16.7333 8.12697 17.9933 8.49363C19.6467 8.97363 21.0267 10.3536 21.5067 12.007C21.8733 13.2603 21.84 14.1203 21.4 14.707C20.8667 15.4203 19.8933 15.5003 19.2133 15.5003ZM16.52 9.2403C16.2467 9.2403 16.0333 9.29363 15.8933 9.4003C15.6333 9.59363 15.5067 10.047 15.5067 10.787V12.707C15.5067 14.2003 16.08 14.507 17.0067 14.507H19.22C19.9533 14.507 20.4067 14.3803 20.6067 14.1203C20.84 13.8136 20.82 13.2003 20.56 12.3003C20.1733 10.987 19.04 9.84697 17.7267 9.46697C17.2333 9.31363 16.8333 9.2403 16.52 9.2403Z" fill="#1EAE6B"/>
<path d="M14.3802 22.1672C14.0268 22.1672 13.6668 22.1405 13.3068 22.0805C10.5802 21.6405 8.36017 19.4272 7.92017 16.7005C7.3535 13.1939 9.6135 9.88721 13.0735 9.18054C13.3468 9.12721 13.6068 9.30054 13.6668 9.56721C13.7202 9.84054 13.5468 10.1005 13.2802 10.1605C10.3535 10.7605 8.4335 13.5605 8.92017 16.5405C9.2935 18.8472 11.1668 20.7205 13.4735 21.0939C16.4668 21.5739 19.2602 19.6472 19.8535 16.7072C19.9068 16.4339 20.1735 16.2605 20.4402 16.3139C20.7135 16.3672 20.8868 16.6339 20.8335 16.9005C20.2002 20.0139 17.4802 22.1672 14.3802 22.1672Z" fill="#1EAE6B"/>
</svg>
