<svg width="40" height="41" viewBox="0 0 40 41" fill="none" xmlns="http://www.w3.org/2000/svg">
<path d="M2.5 40.2766H37.5V35.2766H2.5V40.2766ZM32.5 20.2766H27.3C26.0297 20.2766 25 19.247 25 17.9766V17.2376C25 15.0993 25.6937 13.0649 26.6766 11.1657C27.3883 9.78993 27.6844 8.16649 27.3836 6.44539C26.8547 3.41571 24.3781 0.921956 21.3477 0.394613C16.6109 -0.429606 12.5 3.19305 12.5 7.77664C12.5 8.88289 12.7438 9.92821 13.1789 10.8688C14.2203 13.1227 15 15.4876 15 17.9712V17.9766C15 19.247 13.9703 20.2766 12.7 20.2766H7.5C3.35781 20.2766 0 23.6345 0 27.7766V30.2766C0 31.6571 1.11953 32.7766 2.5 32.7766H37.5C38.8805 32.7766 40 31.6571 40 30.2766V27.7766C40 23.6345 36.6422 20.2766 32.5 20.2766Z" fill="#5870A8"/>
</svg>
