<svg width="58" height="58" viewBox="0 0 58 58" fill="none" xmlns="http://www.w3.org/2000/svg">
<rect width="58" height="58" fill="#1E1E1E"/>
<g id="About" clip-path="url(#clip0_0_1)">
<rect width="1440" height="3555" transform="translate(-691 -1433)" fill="white"/>
<g id="Frame 2087324837">
<g id="Frame 2087324829">
<g id="Frame 2087324827">
<rect x="-169" y="-24" width="396" height="246" rx="16" fill="#A6A6A8" fill-opacity="0.1"/>
<g id="Frame 1000002745">
<g id="Puzzle">
<path id="Vector" d="M28.9998 10.15C28.9998 8.99636 29.4581 7.88992 30.2739 7.07413C31.0897 6.25835 32.1961 5.80005 33.3498 5.80005C34.5035 5.80005 35.6099 6.25835 36.4257 7.07413C37.2415 7.88992 37.6998 8.99636 37.6998 10.15V11.6C37.6998 12.3692 38.0053 13.1068 38.5492 13.6507C39.0931 14.1945 39.8307 14.5 40.5998 14.5H49.2998C50.0689 14.5 50.8066 14.8056 51.3504 15.3494C51.8943 15.8933 52.1998 16.6309 52.1998 17.4V26.1C52.1998 26.8692 51.8943 27.6068 51.3504 28.1507C50.8066 28.6945 50.0689 29 49.2998 29H47.8498C46.6961 29 45.5897 29.4584 44.7739 30.2741C43.9581 31.0899 43.4998 32.1964 43.4998 33.35C43.4998 34.5037 43.9581 35.6102 44.7739 36.426C45.5897 37.2417 46.6961 37.7001 47.8498 37.7001H49.2998C50.0689 37.7001 50.8066 38.0056 51.3504 38.5494C51.8943 39.0933 52.1998 39.8309 52.1998 40.6001V49.3C52.1998 50.0692 51.8943 50.8068 51.3504 51.3507C50.8066 51.8945 50.0689 52.2001 49.2998 52.2001H40.5998C39.8307 52.2001 39.0931 51.8945 38.5492 51.3507C38.0053 50.8068 37.6998 50.0692 37.6998 49.3V47.8501C37.6998 46.6964 37.2415 45.5899 36.4257 44.7741C35.6099 43.9584 34.5035 43.5 33.3498 43.5C32.1961 43.5 31.0897 43.9584 30.2739 44.7741C29.4581 45.5899 28.9998 46.6964 28.9998 47.8501V49.3C28.9998 50.0692 28.6943 50.8068 28.1504 51.3507C27.6066 51.8945 26.8689 52.2001 26.0998 52.2001H17.3998C16.6307 52.2001 15.8931 51.8945 15.3492 51.3507C14.8053 50.8068 14.4998 50.0692 14.4998 49.3V40.6001C14.4998 39.8309 14.1943 39.0933 13.6504 38.5494C13.1066 38.0056 12.3689 37.7001 11.5998 37.7001H10.1498C8.99611 37.7001 7.88967 37.2417 7.07389 36.426C6.25811 35.6102 5.7998 34.5037 5.7998 33.35C5.7998 32.1964 6.25811 31.0899 7.07389 30.2741C7.88967 29.4584 8.99611 29 10.1498 29H11.5998C12.3689 29 13.1066 28.6945 13.6504 28.1507C14.1943 27.6068 14.4998 26.8692 14.4998 26.1V17.4C14.4998 16.6309 14.8053 15.8933 15.3492 15.3494C15.8931 14.8056 16.6307 14.5 17.3998 14.5H26.0998C26.8689 14.5 27.6066 14.1945 28.1504 13.6507C28.6943 13.1068 28.9998 12.3692 28.9998 11.6V10.15Z" fill="url(#paint0_linear_0_1)"/>
</g>
</g>
</g>
</g>
</g>
</g>
<defs>
<linearGradient id="paint0_linear_0_1" x1="16.0297" y1="-18.1139" x2="94.4772" y2="-8.63212" gradientUnits="userSpaceOnUse">
<stop stop-color="#05297D"/>
<stop offset="1" stop-color="#FF7A60"/>
</linearGradient>
<clipPath id="clip0_0_1">
<rect width="1440" height="3555" fill="white" transform="translate(-691 -1433)"/>
</clipPath>
</defs>
</svg>
