<svg width="20" height="20" viewBox="0 0 20 20" fill="none" xmlns="http://www.w3.org/2000/svg">
<path fill-rule="evenodd" clip-rule="evenodd" d="M9.16602 3.33366C5.94436 3.33366 3.33268 5.94533 3.33268 9.16699C3.33268 12.3887 5.94436 15.0003 9.16602 15.0003C12.3877 15.0003 14.9994 12.3887 14.9994 9.16699C14.9994 5.94533 12.3877 3.33366 9.16602 3.33366ZM1.66602 9.16699C1.66602 5.02486 5.02388 1.66699 9.16602 1.66699C13.3082 1.66699 16.666 5.02486 16.666 9.16699C16.666 13.3091 13.3082 16.667 9.16602 16.667C5.02388 16.667 1.66602 13.3091 1.66602 9.16699Z" fill="#637381"/>
<path fill-rule="evenodd" clip-rule="evenodd" d="M13.2851 13.2861C13.6105 12.9606 14.1382 12.9606 14.4636 13.2861L18.0886 16.9111C18.414 17.2365 18.414 17.7641 18.0886 18.0896C17.7632 18.415 17.2355 18.415 16.9101 18.0896L13.2851 14.4646C12.9597 14.1391 12.9597 13.6115 13.2851 13.2861Z" fill="#637381"/>
</svg>
