<svg width="22" height="20" viewBox="0 0 22 20" fill="none" xmlns="http://www.w3.org/2000/svg">
<path fill-rule="evenodd" clip-rule="evenodd" d="M10.084 3.33366C6.54016 3.33366 3.66732 5.94533 3.66732 9.16699C3.66732 12.3887 6.54016 15.0003 10.084 15.0003C13.6278 15.0003 16.5007 12.3887 16.5007 9.16699C16.5007 5.94533 13.6278 3.33366 10.084 3.33366ZM1.83398 9.16699C1.83398 5.02486 5.52764 1.66699 10.084 1.66699C14.6403 1.66699 18.334 5.02486 18.334 9.16699C18.334 13.3091 14.6403 16.667 10.084 16.667C5.52764 16.667 1.83398 13.3091 1.83398 9.16699Z" fill="#637381"/>
<path fill-rule="evenodd" clip-rule="evenodd" d="M14.6142 13.2861C14.9722 12.9606 15.5526 12.9606 15.9106 13.2861L19.8981 16.9111C20.256 17.2365 20.256 17.7641 19.8981 18.0896C19.5401 18.415 18.9597 18.415 18.6017 18.0896L14.6142 14.4646C14.2562 14.1391 14.2562 13.6115 14.6142 13.2861Z" fill="#637381"/>
</svg>
