<svg width="38" height="41" viewBox="0 0 38 41" fill="none" xmlns="http://www.w3.org/2000/svg">
<path d="M35.4453 6.81592L20.4453 0.565923C19.9884 0.376375 19.4986 0.278809 19.0039 0.278809C18.5092 0.278809 18.0194 0.376375 17.5625 0.565923L2.5625 6.81592C1.16406 7.39405 0.25 8.76124 0.25 10.2769C0.25 25.7847 9.19531 36.5034 17.5547 39.9878C18.4766 40.3706 19.5156 40.3706 20.4375 39.9878C27.1328 37.1987 37.75 27.5659 37.75 10.2769C37.75 8.76124 36.8359 7.39405 35.4453 6.81592ZM19.0078 35.144L19 5.37842L32.7422 11.105C32.4844 22.9331 26.3281 31.5034 19.0078 35.144Z" fill="#5870A8"/>
</svg>
