<svg width="34" height="40" viewBox="0 0 34 40" fill="none" xmlns="http://www.w3.org/2000/svg">
<path d="M38 20C38 28.7209 38 33.0813 35.2897 35.7897C32.5832 38.5 28.2209 38.5 19.5 38.5C10.7791 38.5 6.41865 38.5 3.7084 35.7897C1 33.0832 1 28.7209 1 20C1 11.2791 1 6.91865 3.7084 4.2084C6.4205 1.5 10.7791 1.5 19.5 1.5C28.2209 1.5 32.5813 1.5 35.2897 4.2084C37.0916 6.0103 37.6948 8.54295 37.8983 12.6M10.25 23.2L13.5744 19.2114C14.8916 17.6297 15.5502 16.8397 16.416 16.8397C17.2837 16.8397 17.9423 17.6297 19.2595 19.2114L19.7405 19.7886C21.0577 21.3704 21.7163 22.1603 22.584 22.1603C23.4498 22.1603 24.1084 21.3704 25.4256 19.7886L28.75 15.8" stroke="#5870A8" stroke-width="1.5" stroke-linecap="round"/>
</svg>
