<svg width="58" height="58" viewBox="0 0 58 58" fill="none" xmlns="http://www.w3.org/2000/svg">
<rect width="58" height="58" fill="#1E1E1E"/>
<g id="About" clip-path="url(#clip0_0_1)">
<rect width="1440" height="3555" transform="translate(-249 -1433)" fill="white"/>
<g id="Frame 2087324837">
<g id="Frame 2087324829">
<g id="Frame 2087324825">
<rect x="-169" y="-24" width="396" height="246" rx="16" fill="#A6A6A8" fill-opacity="0.1"/>
<g id="Frame 1000002745">
<g id="Sparkles">
<path id="Vector" fill-rule="evenodd" clip-rule="evenodd" d="M14.4998 5.80005C15.2689 5.80005 16.0066 6.10558 16.5504 6.64944C17.0943 7.19329 17.3998 7.93092 17.3998 8.70005V11.6H20.2998C21.0689 11.6 21.8066 11.9056 22.3504 12.4494C22.8943 12.9933 23.1998 13.7309 23.1998 14.5C23.1998 15.2692 22.8943 16.0068 22.3504 16.5507C21.8066 17.0945 21.0689 17.4 20.2998 17.4H17.3998V20.3C17.3998 21.0692 17.0943 21.8068 16.5504 22.3507C16.0066 22.8945 15.2689 23.2001 14.4998 23.2001C13.7307 23.2001 12.9931 22.8945 12.4492 22.3507C11.9053 21.8068 11.5998 21.0692 11.5998 20.3V17.4H8.6998C7.93068 17.4 7.19305 17.0945 6.64919 16.5507C6.10534 16.0068 5.7998 15.2692 5.7998 14.5C5.7998 13.7309 6.10534 12.9933 6.64919 12.4494C7.19305 11.9056 7.93068 11.6 8.6998 11.6H11.5998V8.70005C11.5998 7.93092 11.9053 7.19329 12.4492 6.64944C12.9931 6.10558 13.7307 5.80005 14.4998 5.80005ZM14.4998 34.8C15.2689 34.8 16.0066 35.1056 16.5504 35.6494C17.0943 36.1933 17.3998 36.9309 17.3998 37.7001V40.6001H20.2998C21.0689 40.6001 21.8066 40.9056 22.3504 41.4494C22.8943 41.9933 23.1998 42.7309 23.1998 43.5C23.1998 44.2692 22.8943 45.0068 22.3504 45.5507C21.8066 46.0945 21.0689 46.4001 20.2998 46.4001H17.3998V49.3C17.3998 50.0692 17.0943 50.8068 16.5504 51.3507C16.0066 51.8945 15.2689 52.2001 14.4998 52.2001C13.7307 52.2001 12.9931 51.8945 12.4492 51.3507C11.9053 50.8068 11.5998 50.0692 11.5998 49.3V46.4001H8.6998C7.93068 46.4001 7.19305 46.0945 6.64919 45.5507C6.10534 45.0068 5.7998 44.2692 5.7998 43.5C5.7998 42.7309 6.10534 41.9933 6.64919 41.4494C7.19305 40.9056 7.93068 40.6001 8.6998 40.6001H11.5998V37.7001C11.5998 36.9309 11.9053 36.1933 12.4492 35.6494C12.9931 35.1056 13.7307 34.8 14.4998 34.8ZM34.7998 5.80005C35.4398 5.79984 36.0619 6.01135 36.5691 6.40162C37.0764 6.79188 37.4403 7.33898 37.6041 7.95765L41.0232 20.88L50.7498 26.4886C51.1906 26.7432 51.5567 27.1093 51.8112 27.5501C52.0657 27.991 52.1997 28.491 52.1997 29C52.1997 29.5091 52.0657 30.0091 51.8112 30.45C51.5567 30.8908 51.1906 31.2569 50.7498 31.5114L41.0232 37.1229L37.6012 50.0424C37.4371 50.6605 37.0732 51.207 36.5663 51.5969C36.0594 51.9867 35.4378 52.1981 34.7984 52.1981C34.1589 52.1981 33.5373 51.9867 33.0304 51.5969C32.5235 51.207 32.1596 50.6605 31.9955 50.0424L28.5764 37.1201L18.8498 31.5114C18.409 31.2569 18.0429 30.8908 17.7884 30.45C17.5339 30.0091 17.3999 29.5091 17.3999 29C17.3999 28.491 17.5339 27.991 17.7884 27.5501C18.0429 27.1093 18.409 26.7432 18.8498 26.4886L28.5764 20.8771L31.9984 7.95765C32.1621 7.33946 32.5256 6.79272 33.0322 6.4025C33.5389 6.01228 34.1603 5.80048 34.7998 5.80005Z" fill="url(#paint0_linear_0_1)"/>
</g>
</g>
</g>
</g>
</g>
</g>
<defs>
<linearGradient id="paint0_linear_0_1" x1="16.0297" y1="-18.1139" x2="94.477" y2="-8.63217" gradientUnits="userSpaceOnUse">
<stop stop-color="#05297D"/>
<stop offset="1" stop-color="#FF7A60"/>
</linearGradient>
<clipPath id="clip0_0_1">
<rect width="1440" height="3555" fill="white" transform="translate(-249 -1433)"/>
</clipPath>
</defs>
</svg>
