<svg width="16" height="16" viewBox="0 0 16 16" fill="none" xmlns="http://www.w3.org/2000/svg">
<path d="M6.97118 2.37546C7.43757 1.60047 8.56113 1.60047 9.02752 2.37546L10.151 4.24237C10.3186 4.52079 10.5919 4.71935 10.9085 4.79267L13.0312 5.2843C13.9124 5.48838 14.2596 6.55694 13.6666 7.23999L12.2383 8.88544C12.0253 9.13083 11.9209 9.45211 11.949 9.77583L12.1374 11.9466C12.2156 12.8477 11.3066 13.5081 10.4738 13.1553L8.46746 12.3053C8.16826 12.1786 7.83044 12.1785 7.53124 12.3053L5.52494 13.1553C4.6921 13.5081 3.78312 12.8477 3.86133 11.9466L4.04972 9.77584C4.07782 9.45211 3.97343 9.13083 3.76041 8.88544L2.33206 7.23999C1.73913 6.55695 2.08633 5.48838 2.9675 5.2843L5.09024 4.79267C5.4068 4.71935 5.6801 4.52079 5.84765 4.24237L6.97118 2.37546Z" stroke="#939697" stroke-width="1.5"/>
</svg>
