<svg width="32" height="32" viewBox="0 0 32 32" fill="none" xmlns="http://www.w3.org/2000/svg">
<rect width="31.7171" height="31.7171" rx="15.8585" fill="#FE7C63" fill-opacity="0.25"/>
<path d="M15.8594 9.92188C11.999 9.92188 8.85742 13.0635 8.85742 16.9239C8.85742 20.7842 11.999 23.9339 15.8594 23.9339C19.7198 23.9339 22.8614 20.7923 22.8614 16.9319C22.8614 13.0716 19.7198 9.92188 15.8594 9.92188ZM16.4651 16.6654C16.4651 16.9965 16.1905 17.2711 15.8594 17.2711C15.5283 17.2711 15.2537 16.9965 15.2537 16.6654V12.6274C15.2537 12.2963 15.5283 12.0217 15.8594 12.0217C16.1905 12.0217 16.4651 12.2963 16.4651 12.6274V16.6654Z" fill="#FF7A60" fill-opacity="0.86"/>
<path d="M18.1928 8.95326H13.5248C13.2018 8.95326 12.9434 8.69483 12.9434 8.37178C12.9434 8.04874 13.2018 7.78223 13.5248 7.78223H18.1928C18.5159 7.78223 18.7743 8.04066 18.7743 8.36371C18.7743 8.68675 18.5159 8.95326 18.1928 8.95326Z" fill="#FF7A60" fill-opacity="0.86"/>
</svg>
