<svg width="38" height="38" viewBox="0 0 38 38" fill="none" xmlns="http://www.w3.org/2000/svg">
<circle cx="19" cy="19" r="18" stroke="#FDFDFD" stroke-width="2"/>
<g clip-path="url(#clip0_196_23595)">
<path d="M25.036 15.904C25.0456 16.039 25.0456 16.1741 25.0456 16.3091C25.0456 20.4274 21.9111 25.1726 16.1822 25.1726C14.4172 25.1726 12.7776 24.6614 11.3984 23.7741C11.6492 23.803 11.8903 23.8127 12.1507 23.8127C13.607 23.8127 14.9477 23.3208 16.0182 22.4817C14.6487 22.4528 13.501 21.5558 13.1055 20.3213C13.2984 20.3502 13.4913 20.3695 13.6939 20.3695C13.9736 20.3695 14.2533 20.3309 14.5137 20.2634C13.0863 19.9741 12.0157 18.7203 12.0157 17.2061V17.1675C12.4304 17.399 12.9126 17.5436 13.4238 17.5629C12.5847 17.0035 12.035 16.0487 12.035 14.9685C12.035 14.3898 12.1893 13.8594 12.4593 13.3964C13.9928 15.2868 16.2979 16.5213 18.8827 16.6563C18.8344 16.4248 18.8055 16.1837 18.8055 15.9426C18.8055 14.2259 20.1943 12.8274 21.9207 12.8274C22.8177 12.8274 23.6278 13.2035 24.1969 13.8111C24.9009 13.6761 25.576 13.4157 26.174 13.0589C25.9425 13.7822 25.4507 14.3898 24.8045 14.7756C25.4314 14.7081 26.039 14.5345 26.5984 14.2934C26.1741 14.9106 25.6436 15.4603 25.036 15.904Z" fill="#FDFDFD"/>
</g>
<defs>
<clipPath id="clip0_196_23595">
<rect width="15.2" height="15.2" fill="white" transform="translate(11.3984 11.3999)"/>
</clipPath>
</defs>
</svg>
