<svg width="193" height="198" viewBox="0 0 193 198" fill="none" xmlns="http://www.w3.org/2000/svg">
<rect x="0.25" width="192.5" height="197.312" rx="96.25" fill="#DBFFEE"/>
<path d="M99.6907 130.351C99.6907 112.737 114.005 98.423 131.619 98.423C137.472 98.423 142.9 100.019 147.583 102.733V61.1739C147.583 55.2672 142.793 50.5312 136.94 50.5312H51.7989C45.8922 50.5312 41.1562 55.2672 41.1562 61.1739V125.03C41.1562 130.936 45.9454 135.672 51.7989 135.672H100.17C99.9036 133.916 99.6907 132.16 99.6907 130.351ZM51.7989 71.8165V61.1739L94.3694 87.7804L136.94 61.1739V71.8165L94.3694 98.423L51.7989 71.8165ZM124.967 147.166L110.333 131.202L116.506 125.03L124.967 133.49L144.07 114.387L150.243 121.89L124.967 147.166Z" fill="#1EAE6B"/>
</svg>
