<svg width="40" height="30" viewBox="0 0 40 30" fill="none" xmlns="http://www.w3.org/2000/svg">
<path d="M27.1429 29.5H2.85714C2.09938 29.5 1.37266 29.1952 0.836838 28.6525C0.301019 28.1098 0 27.3738 0 26.6064V3.45746C0 2.69002 0.301019 1.95402 0.836838 1.41136C1.37266 0.868705 2.09938 0.563843 2.85714 0.563843H27.1429C27.9006 0.563843 28.6273 0.868705 29.1632 1.41136C29.699 1.95402 30 2.69002 30 3.45746V9.3315L37.7429 3.73235C37.9561 3.5786 38.2069 3.48713 38.4679 3.46793C38.729 3.44873 38.9902 3.50253 39.2232 3.62346C39.4561 3.74439 39.6517 3.9278 39.7887 4.15367C39.9257 4.37954 39.9988 4.63919 40 4.90427V25.1596C39.9988 25.4247 39.9257 25.6843 39.7887 25.9102C39.6517 26.1361 39.4561 26.3195 39.2232 26.4404C38.9902 26.5613 38.729 26.6151 38.4679 26.5959C38.2069 26.5767 37.9561 26.4853 37.7429 26.3315L30 20.7324V26.6064C30 27.3738 29.699 28.1098 29.1632 28.6525C28.6273 29.1952 27.9006 29.5 27.1429 29.5ZM2.85714 3.45746V26.6064H27.1429V17.9255C27.1441 17.6605 27.2172 17.4008 27.3542 17.1749C27.4911 16.9491 27.6868 16.7657 27.9197 16.6447C28.1526 16.5238 28.4139 16.47 28.6749 16.4892C28.936 16.5084 29.1868 16.5999 29.4 16.7536L37.1429 22.3528V7.71108L29.4 13.3102C29.1868 13.464 28.936 13.5554 28.6749 13.5746C28.4139 13.5939 28.1526 13.5401 27.9197 13.4191C27.6868 13.2982 27.4911 13.1148 27.3542 12.8889C27.2172 12.663 27.1441 12.4034 27.1429 12.1383V3.45746H2.85714Z" fill="#5870A8"/>
</svg>
