<svg width="24" height="24" viewBox="0 0 24 24" fill="none" xmlns="http://www.w3.org/2000/svg">
<g id="typcn:warning-outline">
<path id="Vector" d="M11.9998 5.51123C12.5608 5.51123 13.1188 5.86523 13.5438 6.57323L19.4558 16.4272C20.3068 17.8422 19.6498 19.0002 17.9998 19.0002H5.99981C4.34981 19.0002 3.69281 17.8412 4.54381 16.4272L10.4558 6.57323C10.8808 5.86523 11.4388 5.51123 11.9998 5.51123ZM11.9998 3.51123C10.7038 3.51123 9.51781 4.25123 8.74081 5.54223L2.82881 15.3982C2.04281 16.7072 1.95681 18.1032 2.59381 19.2282C3.23081 20.3532 4.47281 21.0002 5.99981 21.0002H17.9998C19.5268 21.0002 20.7698 20.3542 21.4058 19.2292C22.0418 18.1042 21.9568 16.7082 21.1708 15.3992L15.2588 5.54523C14.4818 4.25123 13.2958 3.51123 11.9998 3.51123Z" fill="#FF7A60"/>
<path id="Vector_2" d="M12.0002 17.3002C12.7182 17.3002 13.3002 16.7182 13.3002 16.0002C13.3002 15.2822 12.7182 14.7002 12.0002 14.7002C11.2822 14.7002 10.7002 15.2822 10.7002 16.0002C10.7002 16.7182 11.2822 17.3002 12.0002 17.3002Z" fill="#FF7A60"/>
<path id="Vector_3" d="M13.5002 10C13.5002 9.17 12.8292 8.5 12.0002 8.5C11.7547 8.50004 11.5129 8.56039 11.2962 8.67574C11.0795 8.79109 10.8944 8.9579 10.7572 9.16153C10.6201 9.36516 10.535 9.59936 10.5095 9.84355C10.4841 10.0877 10.519 10.3345 10.6112 10.562C11.1652 11.938 12.0002 14 12.0002 14L13.3912 10.562C13.4592 10.389 13.5002 10.199 13.5002 10Z" fill="#FF7A60"/>
</g>
</svg>
